<mxfile host="app.diagrams.net" agent="Mozilla/5.0 (Windows NT 10.0; Win64; x64) AppleWebKit/537.36 (KHTML, like Gecko) Chrome/134.0.0.0 Safari/537.36 Edg/134.0.0.0" version="26.1.3">
  <diagram id="prtHgNgQTEPvFCAcTncT" name="Page-1">
    <mxGraphModel dx="450" dy="1992" grid="1" gridSize="10" guides="0" tooltips="1" connect="1" arrows="1" fold="1" page="1" pageScale="1" pageWidth="827" pageHeight="1169" math="0" shadow="0">
      <root>
        <mxCell id="0" />
        <mxCell id="1" parent="0" />
        <mxCell id="xFT_jm4xJvCb5Ql2Q90d-22" value="" style="edgeStyle=none;curved=1;rounded=0;orthogonalLoop=1;jettySize=auto;html=1;fontSize=12;startSize=8;endSize=8;labelBackgroundColor=none;strokeColor=#0B4D6A;fontColor=default;" parent="1" source="xFT_jm4xJvCb5Ql2Q90d-20" target="xFT_jm4xJvCb5Ql2Q90d-21" edge="1">
          <mxGeometry relative="1" as="geometry" />
        </mxCell>
        <mxCell id="xFT_jm4xJvCb5Ql2Q90d-26" value="" style="edgeStyle=none;curved=1;rounded=0;orthogonalLoop=1;jettySize=auto;html=1;fontSize=12;startSize=8;endSize=8;labelBackgroundColor=none;strokeColor=#0B4D6A;fontColor=default;" parent="1" source="xFT_jm4xJvCb5Ql2Q90d-20" target="xFT_jm4xJvCb5Ql2Q90d-25" edge="1">
          <mxGeometry relative="1" as="geometry" />
        </mxCell>
        <mxCell id="xFT_jm4xJvCb5Ql2Q90d-20" value="no" style="rhombus;whiteSpace=wrap;html=1;labelBackgroundColor=none;fillColor=#e3c800;strokeColor=#B09500;fontColor=#000000;" parent="1" vertex="1">
          <mxGeometry x="310" y="10" width="90" height="90" as="geometry" />
        </mxCell>
        <mxCell id="xFT_jm4xJvCb5Ql2Q90d-24" value="" style="edgeStyle=none;curved=1;rounded=0;orthogonalLoop=1;jettySize=auto;html=1;fontSize=12;startSize=8;endSize=8;labelBackgroundColor=none;strokeColor=#0B4D6A;fontColor=default;" parent="1" source="xFT_jm4xJvCb5Ql2Q90d-21" target="xFT_jm4xJvCb5Ql2Q90d-23" edge="1">
          <mxGeometry relative="1" as="geometry" />
        </mxCell>
        <mxCell id="xFT_jm4xJvCb5Ql2Q90d-21" value="&lt;font&gt;initialize valist&amp;nbsp;&lt;/font&gt;&lt;div&gt;index&lt;/div&gt;&lt;div&gt;count&lt;/div&gt;" style="whiteSpace=wrap;html=1;labelBackgroundColor=none;fillColor=#b1ddf0;strokeColor=#10739e;" parent="1" vertex="1">
          <mxGeometry x="220" y="230" width="270" height="60" as="geometry" />
        </mxCell>
        <mxCell id="xFT_jm4xJvCb5Ql2Q90d-34" value="" style="edgeStyle=none;curved=1;rounded=0;orthogonalLoop=1;jettySize=auto;html=1;strokeColor=#0B4D6A;fontSize=12;startSize=8;endSize=8;" parent="1" source="xFT_jm4xJvCb5Ql2Q90d-23" target="xFT_jm4xJvCb5Ql2Q90d-33" edge="1">
          <mxGeometry relative="1" as="geometry" />
        </mxCell>
        <mxCell id="xFT_jm4xJvCb5Ql2Q90d-23" value="loop trough format" style="whiteSpace=wrap;html=1;labelBackgroundColor=none;fillColor=#b1ddf0;strokeColor=#10739e;" parent="1" vertex="1">
          <mxGeometry x="220" y="340" width="270" height="60" as="geometry" />
        </mxCell>
        <mxCell id="xFT_jm4xJvCb5Ql2Q90d-28" value="" style="edgeStyle=none;curved=1;rounded=0;orthogonalLoop=1;jettySize=auto;html=1;fontSize=12;startSize=8;endSize=8;labelBackgroundColor=none;strokeColor=#0B4D6A;fontColor=default;" parent="1" source="xFT_jm4xJvCb5Ql2Q90d-25" target="xFT_jm4xJvCb5Ql2Q90d-27" edge="1">
          <mxGeometry relative="1" as="geometry" />
        </mxCell>
        <mxCell id="xFT_jm4xJvCb5Ql2Q90d-25" value="yes" style="rhombus;whiteSpace=wrap;html=1;labelBackgroundColor=none;fillColor=#e3c800;strokeColor=#B09500;fontColor=#000000;" parent="1" vertex="1">
          <mxGeometry x="100" y="10" width="90" height="90" as="geometry" />
        </mxCell>
        <mxCell id="xFT_jm4xJvCb5Ql2Q90d-27" value="return -1" style="whiteSpace=wrap;html=1;labelBackgroundColor=none;fillColor=#e51400;strokeColor=#B20000;fontColor=#ffffff;" parent="1" vertex="1">
          <mxGeometry x="80" y="140" width="120" height="60" as="geometry" />
        </mxCell>
        <mxCell id="xFT_jm4xJvCb5Ql2Q90d-32" value="" style="endArrow=classic;startArrow=classic;html=1;rounded=0;fontSize=12;startSize=8;endSize=8;curved=1;labelBackgroundColor=none;strokeColor=#0B4D6A;fontColor=default;" parent="1" target="xFT_jm4xJvCb5Ql2Q90d-16" edge="1">
          <mxGeometry width="50" height="50" relative="1" as="geometry">
            <mxPoint x="340" y="-60" as="sourcePoint" />
            <mxPoint x="340" y="-220" as="targetPoint" />
          </mxGeometry>
        </mxCell>
        <mxCell id="xFT_jm4xJvCb5Ql2Q90d-66" value="" style="edgeStyle=none;curved=1;rounded=0;orthogonalLoop=1;jettySize=auto;html=1;strokeColor=#0B4D6A;fontSize=12;startSize=8;endSize=8;" parent="1" source="xFT_jm4xJvCb5Ql2Q90d-16" target="xFT_jm4xJvCb5Ql2Q90d-20" edge="1">
          <mxGeometry relative="1" as="geometry" />
        </mxCell>
        <mxCell id="Y_3dlZlBduoJsaDn3WQ6-3" value="" style="edgeStyle=none;curved=1;rounded=0;orthogonalLoop=1;jettySize=auto;html=1;strokeColor=#0B4D6A;fontSize=12;startSize=8;endSize=8;" edge="1" parent="1" source="xFT_jm4xJvCb5Ql2Q90d-16" target="Y_3dlZlBduoJsaDn3WQ6-2">
          <mxGeometry relative="1" as="geometry" />
        </mxCell>
        <mxCell id="xFT_jm4xJvCb5Ql2Q90d-16" value="If format NULL or empty?" style="rhombus;fillColor=#ffff88;strokeColor=#36393d;align=center;textDirection=ltr;whiteSpace=wrap;" parent="1" vertex="1">
          <mxGeometry x="260" y="-210" width="190" height="160" as="geometry" />
        </mxCell>
        <mxCell id="xFT_jm4xJvCb5Ql2Q90d-36" value="" style="edgeStyle=none;curved=1;rounded=0;orthogonalLoop=1;jettySize=auto;html=1;strokeColor=#0B4D6A;fontSize=12;startSize=8;endSize=8;" parent="1" source="xFT_jm4xJvCb5Ql2Q90d-33" target="xFT_jm4xJvCb5Ql2Q90d-35" edge="1">
          <mxGeometry relative="1" as="geometry" />
        </mxCell>
        <mxCell id="xFT_jm4xJvCb5Ql2Q90d-38" value="" style="edgeStyle=none;curved=1;rounded=0;orthogonalLoop=1;jettySize=auto;html=1;strokeColor=#0B4D6A;fontSize=12;startSize=8;endSize=8;" parent="1" source="xFT_jm4xJvCb5Ql2Q90d-33" target="xFT_jm4xJvCb5Ql2Q90d-37" edge="1">
          <mxGeometry relative="1" as="geometry" />
        </mxCell>
        <mxCell id="xFT_jm4xJvCb5Ql2Q90d-33" value="Is current char &#39;%&#39;?" style="rhombus;whiteSpace=wrap;html=1;fillColor=#ffff88;strokeColor=#36393d;labelBackgroundColor=none;" parent="1" vertex="1">
          <mxGeometry x="270" y="460" width="170" height="130" as="geometry" />
        </mxCell>
        <mxCell id="xFT_jm4xJvCb5Ql2Q90d-40" value="" style="edgeStyle=none;curved=1;rounded=0;orthogonalLoop=1;jettySize=auto;html=1;strokeColor=#0B4D6A;fontSize=12;startSize=8;endSize=8;" parent="1" source="xFT_jm4xJvCb5Ql2Q90d-35" target="xFT_jm4xJvCb5Ql2Q90d-39" edge="1">
          <mxGeometry relative="1" as="geometry" />
        </mxCell>
        <mxCell id="xFT_jm4xJvCb5Ql2Q90d-35" value="yes" style="rhombus;whiteSpace=wrap;html=1;fillColor=#e3c800;strokeColor=#B09500;labelBackgroundColor=none;fontColor=#000000;" parent="1" vertex="1">
          <mxGeometry x="180" y="630" width="80" height="70" as="geometry" />
        </mxCell>
        <mxCell id="xFT_jm4xJvCb5Ql2Q90d-42" value="" style="edgeStyle=none;curved=1;rounded=0;orthogonalLoop=1;jettySize=auto;html=1;strokeColor=#0B4D6A;fontSize=12;startSize=8;endSize=8;" parent="1" source="xFT_jm4xJvCb5Ql2Q90d-37" target="xFT_jm4xJvCb5Ql2Q90d-41" edge="1">
          <mxGeometry relative="1" as="geometry" />
        </mxCell>
        <mxCell id="xFT_jm4xJvCb5Ql2Q90d-37" value="no" style="rhombus;whiteSpace=wrap;html=1;fillColor=#e3c800;strokeColor=#B09500;labelBackgroundColor=none;fontColor=#000000;" parent="1" vertex="1">
          <mxGeometry x="450" y="630" width="80" height="70" as="geometry" />
        </mxCell>
        <mxCell id="xFT_jm4xJvCb5Ql2Q90d-44" value="" style="edgeStyle=none;curved=1;rounded=0;orthogonalLoop=1;jettySize=auto;html=1;strokeColor=#0B4D6A;fontSize=12;startSize=8;endSize=8;" parent="1" source="xFT_jm4xJvCb5Ql2Q90d-39" target="xFT_jm4xJvCb5Ql2Q90d-43" edge="1">
          <mxGeometry relative="1" as="geometry">
            <Array as="points">
              <mxPoint x="220" y="970" />
            </Array>
          </mxGeometry>
        </mxCell>
        <mxCell id="xFT_jm4xJvCb5Ql2Q90d-39" value="&lt;div&gt;call handler - specifier&lt;/div&gt;&lt;div&gt;&lt;br&gt;&lt;/div&gt;" style="whiteSpace=wrap;html=1;fillColor=#b0e3e6;strokeColor=#0e8088;labelBackgroundColor=none;" parent="1" vertex="1">
          <mxGeometry x="140" y="810" width="160" height="60" as="geometry" />
        </mxCell>
        <mxCell id="xFT_jm4xJvCb5Ql2Q90d-41" value="print charcter" style="whiteSpace=wrap;html=1;fillColor=#b1ddf0;strokeColor=#10739e;labelBackgroundColor=none;" parent="1" vertex="1">
          <mxGeometry x="400" y="770" width="180" height="60" as="geometry" />
        </mxCell>
        <mxCell id="xFT_jm4xJvCb5Ql2Q90d-55" value="" style="edgeStyle=none;curved=1;rounded=0;orthogonalLoop=1;jettySize=auto;html=1;strokeColor=#0B4D6A;fontSize=12;startSize=8;endSize=8;" parent="1" source="xFT_jm4xJvCb5Ql2Q90d-43" target="xFT_jm4xJvCb5Ql2Q90d-54" edge="1">
          <mxGeometry relative="1" as="geometry" />
        </mxCell>
        <mxCell id="xFT_jm4xJvCb5Ql2Q90d-57" value="" style="edgeStyle=none;curved=1;rounded=0;orthogonalLoop=1;jettySize=auto;html=1;strokeColor=#0B4D6A;fontSize=12;startSize=8;endSize=8;" parent="1" source="xFT_jm4xJvCb5Ql2Q90d-43" target="xFT_jm4xJvCb5Ql2Q90d-56" edge="1">
          <mxGeometry relative="1" as="geometry" />
        </mxCell>
        <mxCell id="xFT_jm4xJvCb5Ql2Q90d-43" value="&lt;font&gt;End of the string ?&lt;/font&gt;&lt;div&gt;&lt;br&gt;&lt;/div&gt;" style="whiteSpace=wrap;html=1;fillColor=#b0e3e6;strokeColor=#0e8088;labelBackgroundColor=none;" parent="1" vertex="1">
          <mxGeometry x="160" y="1050" width="120" height="60" as="geometry" />
        </mxCell>
        <mxCell id="xFT_jm4xJvCb5Ql2Q90d-46" value="" style="endArrow=classic;startArrow=classic;html=1;rounded=0;strokeColor=#0B4D6A;fontSize=12;startSize=8;endSize=8;curved=1;" parent="1" edge="1">
          <mxGeometry width="50" height="50" relative="1" as="geometry">
            <mxPoint x="220" y="990" as="sourcePoint" />
            <mxPoint x="320" y="990" as="targetPoint" />
          </mxGeometry>
        </mxCell>
        <mxCell id="xFT_jm4xJvCb5Ql2Q90d-47" value="" style="endArrow=classic;startArrow=classic;html=1;rounded=0;strokeColor=#0B4D6A;fontSize=12;startSize=8;endSize=8;curved=1;" parent="1" target="xFT_jm4xJvCb5Ql2Q90d-48" edge="1">
          <mxGeometry width="50" height="50" relative="1" as="geometry">
            <mxPoint x="220" y="900" as="sourcePoint" />
            <mxPoint x="320" y="920" as="targetPoint" />
            <Array as="points" />
          </mxGeometry>
        </mxCell>
        <mxCell id="xFT_jm4xJvCb5Ql2Q90d-51" value="" style="edgeStyle=none;curved=1;rounded=0;orthogonalLoop=1;jettySize=auto;html=1;strokeColor=#0B4D6A;fontSize=12;startSize=8;endSize=8;" parent="1" source="xFT_jm4xJvCb5Ql2Q90d-48" target="xFT_jm4xJvCb5Ql2Q90d-50" edge="1">
          <mxGeometry relative="1" as="geometry" />
        </mxCell>
        <mxCell id="xFT_jm4xJvCb5Ql2Q90d-48" value="valid?" style="rhombus;whiteSpace=wrap;html=1;strokeColor=#36393d;fillColor=#ffff88;" parent="1" vertex="1">
          <mxGeometry x="310" y="860" width="80" height="80" as="geometry" />
        </mxCell>
        <mxCell id="xFT_jm4xJvCb5Ql2Q90d-53" value="" style="edgeStyle=none;curved=1;rounded=0;orthogonalLoop=1;jettySize=auto;html=1;strokeColor=#0B4D6A;fontSize=12;startSize=8;endSize=8;" parent="1" source="xFT_jm4xJvCb5Ql2Q90d-49" target="xFT_jm4xJvCb5Ql2Q90d-52" edge="1">
          <mxGeometry relative="1" as="geometry" />
        </mxCell>
        <mxCell id="xFT_jm4xJvCb5Ql2Q90d-49" value="Invalid?" style="rhombus;whiteSpace=wrap;html=1;strokeColor=#36393d;fillColor=#ffff88;" parent="1" vertex="1">
          <mxGeometry x="310" y="950" width="80" height="80" as="geometry" />
        </mxCell>
        <mxCell id="xFT_jm4xJvCb5Ql2Q90d-50" value="print value" style="whiteSpace=wrap;html=1;fillColor=#b1ddf0;strokeColor=#10739e;" parent="1" vertex="1">
          <mxGeometry x="450" y="890" width="120" height="60" as="geometry" />
        </mxCell>
        <mxCell id="xFT_jm4xJvCb5Ql2Q90d-52" value="print &#39;%x&#39;" style="whiteSpace=wrap;html=1;fillColor=#b1ddf0;strokeColor=#10739e;" parent="1" vertex="1">
          <mxGeometry x="450" y="990" width="120" height="60" as="geometry" />
        </mxCell>
        <mxCell id="xFT_jm4xJvCb5Ql2Q90d-61" value="" style="edgeStyle=none;curved=1;rounded=0;orthogonalLoop=1;jettySize=auto;html=1;strokeColor=#0B4D6A;fontSize=12;startSize=8;endSize=8;" parent="1" source="xFT_jm4xJvCb5Ql2Q90d-54" target="xFT_jm4xJvCb5Ql2Q90d-60" edge="1">
          <mxGeometry relative="1" as="geometry" />
        </mxCell>
        <mxCell id="xFT_jm4xJvCb5Ql2Q90d-54" value="yes" style="rhombus;whiteSpace=wrap;html=1;fillColor=#e3c800;strokeColor=#B09500;labelBackgroundColor=none;fontColor=#000000;" parent="1" vertex="1">
          <mxGeometry x="130" y="1160" width="80" height="80" as="geometry" />
        </mxCell>
        <mxCell id="xFT_jm4xJvCb5Ql2Q90d-59" value="" style="edgeStyle=none;curved=1;rounded=0;orthogonalLoop=1;jettySize=auto;html=1;strokeColor=#0B4D6A;fontSize=12;startSize=8;endSize=8;" parent="1" source="xFT_jm4xJvCb5Ql2Q90d-56" target="xFT_jm4xJvCb5Ql2Q90d-58" edge="1">
          <mxGeometry relative="1" as="geometry" />
        </mxCell>
        <mxCell id="xFT_jm4xJvCb5Ql2Q90d-56" value="no" style="rhombus;whiteSpace=wrap;html=1;fillColor=#e3c800;strokeColor=#B09500;labelBackgroundColor=none;fontColor=#000000;" parent="1" vertex="1">
          <mxGeometry x="230" y="1160" width="80" height="80" as="geometry" />
        </mxCell>
        <mxCell id="xFT_jm4xJvCb5Ql2Q90d-58" value="repeat process" style="whiteSpace=wrap;html=1;fillColor=#b1ddf0;strokeColor=#10739e;labelBackgroundColor=none;" parent="1" vertex="1">
          <mxGeometry x="340" y="1230" width="120" height="60" as="geometry" />
        </mxCell>
        <mxCell id="xFT_jm4xJvCb5Ql2Q90d-63" value="" style="edgeStyle=none;curved=1;rounded=0;orthogonalLoop=1;jettySize=auto;html=1;strokeColor=#0B4D6A;fontSize=12;startSize=8;endSize=8;" parent="1" source="xFT_jm4xJvCb5Ql2Q90d-60" target="xFT_jm4xJvCb5Ql2Q90d-62" edge="1">
          <mxGeometry relative="1" as="geometry" />
        </mxCell>
        <mxCell id="xFT_jm4xJvCb5Ql2Q90d-60" value="Close va_list" style="whiteSpace=wrap;html=1;fillColor=#b0e3e6;strokeColor=#0e8088;labelBackgroundColor=none;" parent="1" vertex="1">
          <mxGeometry x="20" y="1250" width="120" height="60" as="geometry" />
        </mxCell>
        <mxCell id="xFT_jm4xJvCb5Ql2Q90d-65" value="" style="edgeStyle=none;curved=1;rounded=0;orthogonalLoop=1;jettySize=auto;html=1;strokeColor=#0B4D6A;fontSize=12;startSize=8;endSize=8;" parent="1" source="xFT_jm4xJvCb5Ql2Q90d-62" target="xFT_jm4xJvCb5Ql2Q90d-64" edge="1">
          <mxGeometry relative="1" as="geometry" />
        </mxCell>
        <mxCell id="xFT_jm4xJvCb5Ql2Q90d-62" value="return total character" style="whiteSpace=wrap;html=1;fillColor=#b0e3e6;strokeColor=#0e8088;labelBackgroundColor=none;" parent="1" vertex="1">
          <mxGeometry x="20" y="1370" width="120" height="60" as="geometry" />
        </mxCell>
        <mxCell id="xFT_jm4xJvCb5Ql2Q90d-64" value="end" style="ellipse;whiteSpace=wrap;html=1;fillColor=#008a00;strokeColor=#005700;labelBackgroundColor=none;fontColor=#ffffff;" parent="1" vertex="1">
          <mxGeometry x="200" y="1460" width="140" height="130" as="geometry" />
        </mxCell>
        <mxCell id="Y_3dlZlBduoJsaDn3WQ6-1" value="# Printf&#xa;&#xa;## Description&#xa;&#xa;`_printf` permet d&#39;afficher des  formar avec des spécificateurs de conversion.&#xa;&#xa;## Fonctionnalités implémentées&#xa;&#xa;- Gestion des spécificateurs de conversion :&#xa;  - `%c` : Affiche un caractère&#xa;  - `%s` : Affiche une chaîne de caractères&#xa;  - `%%` : Affiche le caractère `%`&#xa;  - `%d` : Affiche un entier signé&#xa;  - `%i` : Affiche un entier signé&#xa;&#xa;## Compilation&#xa;&#xa;Votre code sera compilé avec la commande suivante :&#xa;```sh&#xa;gcc -Wall -Werror -Wextra -pedantic -std=gnu89 -Wno-format *.c&#xa;```&#xa;la commande d&#39;exécution&#xa;```&#xa;./printf&#xa;```&#xa;&#xa;## Utilisation&#xa;&#xa;Voici un exemple d&#39;utilisation de `_printf` :&#xa;```c&#xa;#include &quot;main.h&quot;&#xa;#include &#xa;&#xa;int main(void)&#xa;{&#xa;    int len;&#xa;    len = _printf(&quot;Affichage d&#39;un entier : %d\n&quot;, 42);&#xa;    printf(&quot;Longueur renvoyée : %d\n&quot;, len);&#xa;    return (0);&#xa;}&#xa;```&#xa;&#xa;## Normes de codage&#xa;&#xa;- Respect des normes Betty&#xa;- Pas de variables globales&#xa;- Maximum de 5 fonctions par fichier&#xa;- les fichiers sont terminés par une nouvelle ligne&#xa;&#xa;## Auteurs&#xa;&#xa;- Warren Gomes martins&#xa;- Myriam Mezhoud" style="text;whiteSpace=wrap;html=1;fontColor=#EEEEEE;" vertex="1" parent="1">
          <mxGeometry x="60" y="1580" width="440" height="790" as="geometry" />
        </mxCell>
        <mxCell id="Y_3dlZlBduoJsaDn3WQ6-2" value="Start" style="ellipse;whiteSpace=wrap;html=1;fillColor=#008a00;strokeColor=#005700;fontColor=#ffffff;" vertex="1" parent="1">
          <mxGeometry x="270" y="-460" width="170" height="140" as="geometry" />
        </mxCell>
      </root>
    </mxGraphModel>
  </diagram>
</mxfile>
